<?xml version="1.0" encoding="UTF-8" standalone="yes"?>
<svg width="912pt" height="912pt" viewBox="0 0 912 912" xmlns="http://www.w3.org/2000/svg" 
     preserveAspectRatio="xMidYMid meet">
  <g transform="translate(0.000000,912.000000) scale(0.100000,-0.100000)" stroke="none" fill="#1B56FD">
    <path d="M4225 9080 c-756 -62 -1410 -273 -2069 -669 -271 -162 -539 -373
    -787 -621 -397 -396 -648 -739 -878 -1200 -329 -661 -486 -1384 -468 -2155 6
    -266 21 -422 63 -655 200 -1113 850 -2175 1739 -2842 650 -488 1379 -777 2216
    -880 247 -30 809 -33 1044 -5 733 86 1340 307 1965 715 540 352 968 779 1327
    1323 390 592 612 1213 700 1959 25 209 25 813 0 1025 -95 808 -360 1503 -820
    2148 -165 233 -385 475 -637 706 -433 396 -1011 729 -1610 930 -317 106 -602
    168 -950 206 -171 19 -675 28 -835 15z m545 -540 c890 -51 1646 -337 2320
    -877 522 -418 925 -960 1194 -1607 264 -633 355 -1368 255 -2061 -146 -1013
    -682 -1936 -1494 -2572 -504 -395 -1138 -682 -1749 -793 -291 -52 -725 -74
    -1007 -51 -814 68 -1570 358 -2184 836 -714 556 -1213 1317 -1430 2179 -133
    531 -151 1152 -49 1706 97 525 285 991 579 1435 612 926 1512 1534 2570 1739
    338 65 648 86 995 66z"/>
    <path d="M4470 8223 c-19 -10 -45 -34 -58 -52 l-23 -35 3 -376 3 -377 28 -36
    c71 -93 228 -87 288 9 l24 39 0 365 c0 405 0 404 -67 452 -44 31 -148 37 -198
    11z"/>
    <path d="M2675 7641 c-67 -17 -108 -56 -125 -122 -15 -54 -4 -87 81 -242 113
    -206 134 -227 226 -227 101 0 168 74 160 175 -5 70 -165 357 -217 391 -41 26
    -84 35 -125 25z"/>
    <path d="M6356 7636 c-21 -8 -45 -21 -52 -28 -24 -24 -183 -316 -194 -357 -28
    -107 45 -201 157 -201 90 0 106 17 232 247 84 154 93 191 62 257 -37 76 -125
    111 -205 82z"/>
    <path d="M7256 6674 c-16 -9 -65 -42 -110 -73 -195 -139 -993 -682 -1601
    -1091 -363 -244 -680 -458 -704 -476 l-44 -31 -45 19 c-104 46 -255 42 -366
    -12 l-61 -29 -55 31 c-30 17 -181 104 -335 193 -256 149 -830 477 -1200 687
    -237 135 -251 141 -306 140 -104 -2 -170 -72 -169 -180 1 -92 2 -93 515 -468
    329 -240 488 -355 905 -651 l335 -239 7 -75 c20 -226 184 -416 408 -474 48
    -13 91 -16 163 -13 93 5 103 8 194 53 127 63 206 140 261 257 46 94 68 203 58
    284 -6 51 -5 53 26 76 101 71 853 654 1473 1142 744 586 853 673 871 701 43
    66 16 175 -55 222 -41 27 -121 30 -165 7z m-2585 -2010 c56 -38 94 -119 85
    -182 -13 -96 -96 -172 -190 -172 -160 0 -244 196 -138 322 60 72 166 86 243
    32z"/>
    <path d="M1369 6287 c-84 -56 -93 -185 -17 -253 38 -35 355 -194 386 -194 47
    0 115 41 140 85 18 31 22 52 19 91 -6 83 -26 101 -222 203 -150 79 -181 91
    -223 91 -34 0 -59 -7 -83 -23z"/>
    <path d="M910 4738 c-119 -61 -120 -239 -2 -306 39 -21 48 -22 331 -22 317 0
    332 2 383 56 74 80 61 202 -29 264 l-36 25 -301 3 c-296 3 -302 2 -346 -20z"/>
    <path d="M6512 4743 c-18 -8 -43 -30 -55 -47 l-22 -31 -3 -1742 c-1 -959 0
    -1743 3 -1743 13 0 293 180 402 258 465 334 879 797 1094 1225 l31 61 -4 961
    c-3 934 -4 961 -23 994 -11 19 -33 43 -48 55 -28 21 -35 21 -685 23 -590 3
    -660 1 -690 -14z"/>
    <path d="M4475 3646 c-37 -17 -70 -52 -85 -90 -10 -26 -11 -1392 -2 -2495 l3
    -343 307 5 c317 5 380 11 638 62 162 33 402 103 552 161 l122 48 0 1270 c0
    1245 0 1270 -20 1311 -11 22 -34 49 -52 60 -32 19 -55 20 -733 22 -569 2 -706
    0 -730 -11z"/>
    <path d="M2417 2890 c-19 -16 -40 -42 -46 -57 -8 -20 -11 -223 -9 -728 l3
    -700 85 -58 c307 -209 715 -392 1120 -501 106 -28 321 -76 345 -76 13 0 15
    114 15 1015 0 1111 3 1055 -59 1108 l-33 27 -693 0 -694 0 -34 -30z"/>
  </g>
</svg>
